{
    "asset" : {
        "generator" : "Khronos glTF Blender I/O v1.7.33",
        "version" : "2.0"
    },
    "scene" : 0,
    "scenes" : [
        {
            "name" : "Scene",
            "nodes" : [
                0,
                1
            ]
        }
    ],
    "nodes" : [
        {
            "mesh" : 0,
            "name" : "Text",
            "rotation" : [
                0.7071068286895752,
                0,
                0,
                0.7071068286895752
            ],
            "translation" : [
                -1.1688508987426758,
                7.141012191772461,
                -1.0925878286361694
            ]
        },
        {
            "mesh" : 1,
            "name" : "ChineseScroll",
            "rotation" : [
                -0.5000000596046448,
                -0.4999999701976776,
                0.4999999403953552,
                0.5000000596046448
            ],
            "scale" : [
                5.721676826477051,
                3.94267201423645,
                3.94267201423645
            ],
            "translation" : [
                2.3571841716766357,
                4.55265998840332,
                -1.095510482788086
            ]
        }
    ],
    "materials" : [
        {
            "doubleSided" : true,
            "name" : "Material.001",
            "pbrMetallicRoughness" : {
                "baseColorFactor" : [
                    0.8796226382255554,
                    0.44520121812820435,
                    0.0024282161612063646,
                    1
                ],
                "metallicFactor" : 0,
                "roughnessFactor" : 0.5
            }
        },
        {
            "name" : "scrollmat",
            "pbrMetallicRoughness" : {
                "baseColorTexture" : {
                    "index" : 0
                },
                "metallicFactor" : 0,
                "roughnessFactor" : 0.5
            }
        }
    ],
    "meshes" : [
        {
            "name" : "Text",
            "primitives" : [
                {
                    "attributes" : {
                        "POSITION" : 0,
                        "NORMAL" : 1,
                        "TEXCOORD_0" : 2
                    },
                    "indices" : 3,
                    "material" : 0
                }
            ]
        },
        {
            "name" : "Mesh.007",
            "primitives" : [
                {
                    "attributes" : {
                        "POSITION" : 4,
                        "NORMAL" : 5,
                        "TEXCOORD_0" : 6
                    },
                    "indices" : 7,
                    "material" : 1
                }
            ]
        }
    ],
    "textures" : [
        {
            "sampler" : 0,
            "source" : 0
        }
    ],
    "images" : [
        {
            "mimeType" : "image/png",
            "name" : "Scroll1",
            "uri" : "Scroll1.png"
        }
    ],
    "accessors" : [
        {
            "bufferView" : 0,
            "componentType" : 5126,
            "count" : 13662,
            "max" : [
                1.4074515104293823,
                0.029999997466802597,
                0.7512299418449402
            ],
            "min" : [
                -1.4153075218200684,
                -0.029999997466802597,
                -0.6785619258880615
            ],
            "type" : "VEC3"
        },
        {
            "bufferView" : 1,
            "componentType" : 5126,
            "count" : 13662,
            "type" : "VEC3"
        },
        {
            "bufferView" : 2,
            "componentType" : 5126,
            "count" : 13662,
            "type" : "VEC2"
        },
        {
            "bufferView" : 3,
            "componentType" : 5123,
            "count" : 25248,
            "type" : "SCALAR"
        },
        {
            "bufferView" : 4,
            "componentType" : 5126,
            "count" : 24,
            "max" : [
                0.6528316140174866,
                0.0039918869733810425,
                0.22868388891220093
            ],
            "min" : [
                -0.6528314352035522,
                -0.003991894423961639,
                -0.22868388891220093
            ],
            "type" : "VEC3"
        },
        {
            "bufferView" : 5,
            "componentType" : 5126,
            "count" : 24,
            "type" : "VEC3"
        },
        {
            "bufferView" : 6,
            "componentType" : 5126,
            "count" : 24,
            "type" : "VEC2"
        },
        {
            "bufferView" : 7,
            "componentType" : 5123,
            "count" : 36,
            "type" : "SCALAR"
        }
    ],
    "bufferViews" : [
        {
            "buffer" : 0,
            "byteLength" : 163944,
            "byteOffset" : 0
        },
        {
            "buffer" : 0,
            "byteLength" : 163944,
            "byteOffset" : 163944
        },
        {
            "buffer" : 0,
            "byteLength" : 109296,
            "byteOffset" : 327888
        },
        {
            "buffer" : 0,
            "byteLength" : 50496,
            "byteOffset" : 437184
        },
        {
            "buffer" : 0,
            "byteLength" : 288,
            "byteOffset" : 487680
        },
        {
            "buffer" : 0,
            "byteLength" : 288,
            "byteOffset" : 487968
        },
        {
            "buffer" : 0,
            "byteLength" : 192,
            "byteOffset" : 488256
        },
        {
            "buffer" : 0,
            "byteLength" : 72,
            "byteOffset" : 488448
        }
    ],
    "samplers" : [
        {
            "magFilter" : 9729,
            "minFilter" : 9987
        }
    ],
    "buffers" : [
        {
            "byteLength" : 488520,
            "uri" : "scroll1.bin"
        }
    ]
}
