{
    "asset" : {
        "generator" : "Khronos glTF Blender I/O v1.7.33",
        "version" : "2.0"
    },
    "scene" : 0,
    "scenes" : [
        {
            "name" : "Scene",
            "nodes" : [
                0
            ]
        }
    ],
    "nodes" : [
        {
            "mesh" : 0,
            "name" : "Circle"
        }
    ],
    "meshes" : [
        {
            "name" : "Circle",
            "primitives" : [
                {
                    "attributes" : {
                        "POSITION" : 0,
                        "NORMAL" : 1,
                        "TEXCOORD_0" : 2
                    },
                    "indices" : 3
                }
            ]
        }
    ],
    "accessors" : [
        {
            "bufferView" : 0,
            "componentType" : 5126,
            "count" : 6185,
            "max" : [
                1.686141848564148,
                3.249748706817627,
                1
            ],
            "min" : [
                -1.6810871362686157,
                0,
                -1
            ],
            "type" : "VEC3"
        },
        {
            "bufferView" : 1,
            "componentType" : 5126,
            "count" : 6185,
            "type" : "VEC3"
        },
        {
            "bufferView" : 2,
            "componentType" : 5126,
            "count" : 6185,
            "type" : "VEC2"
        },
        {
            "bufferView" : 3,
            "componentType" : 5123,
            "count" : 9840,
            "type" : "SCALAR"
        }
    ],
    "bufferViews" : [
        {
            "buffer" : 0,
            "byteLength" : 74220,
            "byteOffset" : 0
        },
        {
            "buffer" : 0,
            "byteLength" : 74220,
            "byteOffset" : 74220
        },
        {
            "buffer" : 0,
            "byteLength" : 49480,
            "byteOffset" : 148440
        },
        {
            "buffer" : 0,
            "byteLength" : 19680,
            "byteOffset" : 197920
        }
    ],
    "buffers" : [
        {
            "byteLength" : 217600,
            "uri" : "arrow.bin"
        }
    ]
}
